<?xml version="1.0" encoding="utf-8"?>
<!-- Generator: Adobe Illustrator 16.0.0, SVG Export Plug-In . SVG Version: 6.00 Build 0)  -->
<!DOCTYPE svg PUBLIC "-//W3C//DTD SVG 1.1//EN" "http://www.w3.org/Graphics/SVG/1.1/DTD/svg11.dtd">
<svg version="1.1" id="Layer_1" xmlns="http://www.w3.org/2000/svg" xmlns:xlink="http://www.w3.org/1999/xlink" x="0px" y="0px"
	 width="500px" height="100px" viewBox="0 0 500 100" enable-background="new 0 0 500 100" xml:space="preserve">
<g>
	<g>
		<path fill="#FFFFFF" stroke="#FFFFFF" stroke-miterlimit="10" d="M248.787,55.954c0,0,4.556,14.88,11.823,14.151
			c7.269-0.729,2.755-9.165-0.504-9.858c0,0,8.105,0.231,9.706,7.741c1.602,7.51-8.598,13.975-25.618,13.054
			c-17.021-0.923-25.979-3.833-28.865-7.051c-2.886-3.22-7.531-11.434-2.658-21.206C212.671,52.785,228.938,58.542,248.787,55.954z"
			/>
		<path fill="#FFFFFF" stroke="#FFFFFF" stroke-miterlimit="10" d="M268.432,60.563c0,0,5.152,3.652,4.257,12.291
			c-0.897,8.641-13.545,12.246-31.453,11.823c-17.91-0.424-31.076-7.679-32.636-15.812c0,0-6.83-2.801-9.739-7.43
			c0,0-1.375,10.48,6.492,18.673c0,0,17.66,9.222,38.251,8.554c20.592-0.668,32.443-3.325,32.967-16.436
			c0,0,0.308-8.943-4.906-11.925c0,0,3.952,1.659,4.755-1.34c0.803-3.002-2.607-5.217-5.782-4.769
			C267.462,54.645,265.771,58.024,268.432,60.563z"/>
		<path fill="#FFFFFF" stroke="#FFFFFF" stroke-miterlimit="10" d="M262.698,78.021c0,0,1.175,0.582,1.301,2.331
			c0.124,1.751-2.986,3.269-3.784,2.343c-0.801-0.925-0.515-2.373,0.769-2.475c0,0-0.195-1.028-1.649-1.419
			c-1.451-0.394-0.358-1.449,0.13-1.689C259.953,76.872,262.698,78.021,262.698,78.021z"/>
		<path fill="#FFFFFF" stroke="#FFFFFF" stroke-miterlimit="10" d="M227.47,79.179c0,0,0.41,1.247-0.748,2.563
			c-1.159,1.318-4.423,0.169-4.325-1.051c0.1-1.219,1.33-2.03,2.303-1.188c0,0,0.594-0.861-0.146-2.171
			c-0.739-1.308,0.781-1.274,1.295-1.094C226.362,76.421,227.47,79.179,227.47,79.179z"/>
		<path fill="#FFFFFF" stroke="#FFFFFF" stroke-miterlimit="10" d="M249.531,42.258l0.716,1.329c0,0-0.489,0.858-0.172,1.188
			c0.317,0.333,1.396,0.577,1.8,0.349c0,0,1.676,1.51,0.125,2.422c0,0-0.053,0.305,0.047,0.484c0,0-2.029,0.127-3.164-0.787
			c0,0-0.47,1.477,0.038,2.354s2.368,0.564,2.368,0.564l-0.029,1.059c0,0,0.547,0.248,1.068,1.425c0,0,2.162,0.631,4.021-1.941
			c0,0,0.197-1.56,1.506-2.228c1.309-0.669,2.07-0.245,2.07-0.245s1.059-1.026,2.054-1.054c0.993-0.026,2.469,2.143,2.387,3.72
			c-0.082,1.58-2.72,2.037-2.72,2.037s0.627,1.842,0.584,2.84c-0.04,0.998-2.319,1.738-3.036,1.68c0,0-0.337-0.259-0.39-0.371
			c0,0-1.975,1.234-4.882,1.383c0,0,0.853,1.299,0.987,3.026c0,0,7.519-0.083,9.645,7.607c0,0-2.144,1.545-2.301,1.622
			c-0.159,0.078-3.037-0.076-3.221-0.066c-0.185,0.009-8.959-5.072-9.098-5.066c-0.138,0.007-2.706-2.686-2.706-2.686l-8.898-5.217
			l-0.434-1.228c0,0,0.117-2.272,0.606-3.548c0,0-1.549-0.01-1.688-1.357c0,0,0.8-0.172,1.288-1.076c0,0-1.972-0.985-2.017-2.788
			c0,0,1.051,0.663,1.748,0.255c0.697-0.405,0.727-2.096,1.398-2.546c0,0-0.68-0.197-0.833-0.905
			c-0.152-0.71,0.265-1.611-1.696-1.95c-1.961-0.34-3.297-0.203-4.045-1.738c0,0-0.56-0.989-0.588-1.104
			c-0.03-0.115-0.107-0.713-0.038-0.715c0.069-0.005,0.719,0.032,0.854-0.044c0.137-0.077,1.313,0.744,2.78,0.043
			c1.469-0.701,7.88-3.851,11.615,0.425c0,0,1.283-0.253,1.98,0.687C249.961,41.043,249.926,41.845,249.531,42.258z"/>
		<circle fill="#FFFFFF" stroke="#FFFFFF" stroke-miterlimit="10" cx="231.581" cy="38.736" r="2.312"/>
		<path fill="#FFFFFF" stroke="#FFFFFF" stroke-miterlimit="10" d="M350.076,47.851c0.873-1.118,0.822-2.834,0.822-2.834
			c-0.732-0.321-4.42-1.708-4.42-1.708l-1.842-3.092c-0.329-0.272-1.032-1.006-2.544-1.517l0.095-2.751l1.638-1.563
			c0,0-0.238-0.943-1.07-1.33l-0.268,0.22c-0.152-0.182-0.348-0.355-0.604-0.476l-1.645,1.357c-0.855-0.606-2.126-2.124-1.827-5.751
			c0,0-0.409-0.556-1.029-0.42c-0.275-0.243-0.891-0.587-1.653,0.257c0,0-0.301,1.607,0.065,3.026
			c-1.088-1.511-2.185-4.206-0.906-8.27c0,0-0.459-0.691-1.25-0.631c-0.308-0.22-0.791-0.403-1.413-0.105
			c0,0-0.773,3.484-0.036,6.551c-0.689-1.447-1.303-3.694-1.135-7.051c0,0-0.383-0.155-0.876-0.143
			c0.004-0.039,0.001-0.073,0.003-0.112c0,0-0.928-0.383-1.762,0.09c0,0-0.935,11.198,10.278,14.166
			c0.219,0.071,0.441,0.14,0.67,0.203l-0.064,2.22c-2.289-0.173-2.885,0.264-2.885,0.264c-1.808,2.492-6.501,3.161-6.501,3.161
			c0.854,2.679,3.7,1.638,3.7,1.638c-1.379,8.057-9.024,11.92-14.277,12.832c-5.253,0.913-8.352-1.543-13.91-2.407
			c-1.708-0.264-3.145-0.022-4.335,0.546c-4.846,0.09-6.692-2.633-6.692-2.633s-1.05,1.199-0.271,3.129
			c0.575,1.428,3.251,1.455,4.606,1.372c-1.197,1.44-1.899,3.294-2.168,5.021c-0.592,3.828-4.845,4.009-5.974,4.316
			c-1.131,0.31-1.364,1.359-1.364,1.359c-0.964,2.843-4.662,6.219-4.662,6.219l-2.544-0.767c-2.132,2.436-1.683,4.921-1.683,4.921
			s2.52,0.265,4.137-0.354c1.614-0.619,1.503-1.402,3.332-2.748c1.83-1.346,4.319-3.766,4.319-3.766
			c4.313,0.281,7.057-1.362,7.057-1.362c-1.509,1.976-5.202,2.594-5.876,3.415c-0.675,0.821-0.665,2.434-1.106,4.316
			c-0.44,1.885-1.48,2.547-1.665,3.13c-0.186,0.582-0.182,1.37-0.182,1.37l-1.749,0.806c0.055,3.185,2.002,4.16,2.002,4.16
			c2.588-1.207,3.687-4.988,3.687-4.988c0.588-0.388,0.747-0.79,0.747-0.79c0.167-2.335,2.439-6.212,2.439-6.212
			s2.693,0.114,6.22-0.926c3.528-1.039,6.236-5.511,6.236-5.511s5.113,2.64,11.315,2.107c0.859-0.071,1.646-0.196,2.375-0.351
			c-0.309,0.393-0.66,0.818-0.931,1.043c-0.55,0.457-2.068,0.606-2.068,0.606c-2.86,0.121-3.492,0.821-3.492,0.821
			c0.193,2.855,1.908,3.724,1.908,3.724c0.604-1.272,3.305-2.604,3.841-2.393c0.536,0.212,2.407-0.552,2.407-0.552
			s4.367-4.235,4.432-4.858c0.027-0.271-0.086-0.616-0.222-0.919c0.515-0.39,0.773-0.661,0.773-0.661
			c2.634,1.764,6.257,1.186,6.799,1.302c0.544,0.114,0.185,0.813,0.029,1.287c-0.155,0.472-2.511,6.216-2.511,6.216l-3.082,1.374
			c-0.427,3.568,2.44,4.28,2.44,4.28s3.204-3.136,3.555-3.297c0.349-0.16,1.062-0.948,0.938-1.229
			c-0.119-0.28,0.287-2.128,1.161-3.927c0.875-1.799,3.091-3.31,3.464-4.403c0.374-1.093,0.611-2.072-0.18-2.819
			c-0.789-0.748-1.923-0.511-4.576-1.271s-3.787-3.353-3.787-3.353c4.134-4.615,6.526-12.437,6.526-12.437
			C343.029,48.032,350.076,47.851,350.076,47.851z"/>
		<path fill="#FFFFFF" stroke="#FFFFFF" stroke-miterlimit="10" d="M420.481,44.261c0.874-1.12,0.822-2.836,0.822-2.836
			c-0.732-0.321-4.421-1.708-4.421-1.708l-1.84-3.093c-0.33-0.272-1.031-1.005-2.546-1.516l0.097-2.751l1.638-1.563
			c0,0-0.238-0.943-1.07-1.33l-0.267,0.22c-0.154-0.181-0.35-0.355-0.605-0.476l-1.643,1.358c-0.856-0.606-2.128-2.124-1.827-5.751
			c0,0-0.409-0.555-1.03-0.419c-0.275-0.244-0.891-0.588-1.654,0.257c0,0-0.3,1.607,0.065,3.025c-1.088-1.51-2.183-4.205-0.905-8.27
			c0,0-0.459-0.691-1.249-0.631c-0.309-0.22-0.792-0.403-1.414-0.104c0,0-0.774,3.483-0.035,6.55
			c-0.689-1.447-1.305-3.695-1.137-7.052c0,0-0.382-0.154-0.875-0.142c0.002-0.039,0.002-0.074,0.003-0.112
			c0,0-0.926-0.383-1.763,0.09c0,0-0.935,11.199,10.279,14.167c0.22,0.07,0.44,0.14,0.671,0.202l-0.064,2.22
			c-2.29-0.173-2.887,0.264-2.887,0.264c-1.808,2.49-6.5,3.161-6.5,3.161c0.853,2.678,3.701,1.637,3.701,1.637
			c-1.381,8.056-9.025,11.92-14.279,12.832c-5.253,0.913-8.351-1.544-13.91-2.405c-1.707-0.266-3.143-0.022-4.334,0.544
			c-4.846,0.09-6.693-2.632-6.693-2.632s-1.05,1.199-0.271,3.128c0.574,1.43,3.252,1.455,4.607,1.373
			c-1.198,1.439-1.901,3.293-2.169,5.022c-0.593,3.824-4.845,4.007-5.975,4.315c-1.13,0.308-1.362,1.357-1.362,1.357
			c-0.966,2.843-4.66,6.219-4.66,6.219l-2.548-0.767c-2.131,2.438-1.683,4.922-1.683,4.922s2.521,0.264,4.137-0.355
			s1.504-1.401,3.334-2.748c1.828-1.347,4.318-3.766,4.318-3.766c4.312,0.282,7.057-1.362,7.057-1.362
			c-1.51,1.975-5.203,2.593-5.876,3.415c-0.675,0.821-0.665,2.433-1.105,4.317c-0.442,1.884-1.48,2.546-1.667,3.129
			c-0.186,0.583-0.18,1.37-0.18,1.37l-1.75,0.806c0.054,3.186,2.003,4.16,2.003,4.16c2.588-1.208,3.685-4.986,3.685-4.986
			c0.588-0.389,0.747-0.792,0.747-0.792c0.167-2.335,2.439-6.212,2.439-6.212s2.693,0.115,6.223-0.926
			c3.526-1.039,6.234-5.51,6.234-5.51s5.112,2.639,11.316,2.107c0.858-0.073,1.646-0.196,2.374-0.349
			c-0.309,0.391-0.66,0.815-0.93,1.04c-0.551,0.457-2.07,0.606-2.07,0.606c-2.859,0.122-3.492,0.823-3.492,0.823
			c0.194,2.854,1.91,3.722,1.91,3.722c0.602-1.271,3.305-2.604,3.841-2.393s2.405-0.552,2.405-0.552s4.37-4.234,4.432-4.857
			c0.029-0.271-0.085-0.616-0.221-0.92c0.517-0.39,0.773-0.66,0.773-0.66c2.633,1.764,6.256,1.186,6.798,1.301
			c0.545,0.114,0.186,0.813,0.03,1.288c-0.155,0.472-2.512,6.216-2.512,6.216l-3.081,1.375c-0.427,3.566,2.44,4.279,2.44,4.279
			s3.204-3.137,3.554-3.298c0.351-0.159,1.062-0.948,0.942-1.229c-0.123-0.279,0.283-2.128,1.158-3.927
			c0.875-1.801,3.091-3.31,3.463-4.403c0.375-1.092,0.613-2.071-0.18-2.819c-0.788-0.747-1.923-0.51-4.574-1.271
			c-2.654-0.76-3.79-3.353-3.79-3.353c4.134-4.614,6.528-12.437,6.528-12.437C413.437,44.44,420.481,44.261,420.481,44.261z"/>
		<path fill="#FFFFFF" stroke="#FFFFFF" stroke-miterlimit="10" d="M489.319,38.027c0.874-1.119,0.822-2.835,0.822-2.835
			c-0.732-0.32-4.418-1.708-4.418-1.708l-1.843-3.093c-0.329-0.272-1.03-1.005-2.544-1.516l0.095-2.751l1.637-1.563
			c0,0-0.237-0.943-1.068-1.33l-0.268,0.22c-0.153-0.182-0.347-0.356-0.605-0.476l-1.644,1.357c-0.855-0.605-2.125-2.124-1.827-5.75
			c0,0-0.408-0.555-1.029-0.42c-0.272-0.243-0.892-0.587-1.652,0.257c0,0-0.301,1.608,0.063,3.024
			c-1.086-1.509-2.184-4.204-0.905-8.268c0,0-0.459-0.692-1.249-0.631c-0.309-0.22-0.791-0.404-1.413-0.105
			c0,0-0.774,3.483-0.036,6.551c-0.689-1.447-1.304-3.695-1.136-7.052c0,0-0.384-0.154-0.876-0.144
			c0.002-0.038,0.002-0.073,0.002-0.112c0,0-0.925-0.382-1.76,0.09c0,0-0.935,11.199,10.277,14.166
			c0.219,0.071,0.44,0.14,0.67,0.203l-0.063,2.221c-2.29-0.174-2.887,0.263-2.887,0.263c-1.808,2.491-6.502,3.16-6.502,3.16
			c0.854,2.678,3.702,1.638,3.702,1.638c-1.38,8.056-9.024,11.919-14.278,12.833c-5.254,0.912-8.352-1.544-13.909-2.406
			c-1.709-0.265-3.145-0.024-4.338,0.545c-4.843,0.089-6.691-2.633-6.691-2.633s-1.048,1.2-0.271,3.13
			c0.575,1.427,3.25,1.453,4.607,1.371c-1.198,1.44-1.901,3.295-2.169,5.022c-0.593,3.825-4.846,4.007-5.974,4.316
			c-1.131,0.308-1.365,1.358-1.365,1.358c-0.963,2.843-4.659,6.217-4.659,6.217l-2.545-0.765c-2.131,2.437-1.683,4.92-1.683,4.92
			s2.519,0.266,4.135-0.354c1.615-0.619,1.505-1.401,3.334-2.749c1.828-1.347,4.321-3.765,4.321-3.765
			c4.31,0.28,7.054-1.361,7.054-1.361c-1.509,1.974-5.201,2.591-5.876,3.415c-0.675,0.821-0.666,2.432-1.105,4.318
			c-0.44,1.883-1.48,2.545-1.666,3.127c-0.187,0.583-0.181,1.371-0.181,1.371l-1.75,0.805c0.054,3.185,2.002,4.16,2.002,4.16
			c2.589-1.207,3.686-4.987,3.686-4.987c0.589-0.388,0.747-0.791,0.747-0.791c0.167-2.336,2.441-6.211,2.441-6.211
			s2.691,0.113,6.22-0.927c3.528-1.039,6.234-5.511,6.234-5.511s5.115,2.641,11.319,2.109c0.857-0.074,1.643-0.198,2.372-0.352
			c-0.31,0.393-0.66,0.816-0.93,1.042c-0.55,0.458-2.069,0.604-2.069,0.604c-2.86,0.123-3.493,0.825-3.493,0.825
			c0.194,2.855,1.91,3.721,1.91,3.721c0.603-1.271,3.306-2.604,3.839-2.391c0.539,0.21,2.408-0.553,2.408-0.553
			s4.369-4.233,4.432-4.859c0.028-0.271-0.087-0.614-0.221-0.919c0.516-0.389,0.772-0.658,0.772-0.658
			c2.633,1.762,6.255,1.184,6.799,1.3c0.543,0.113,0.185,0.813,0.029,1.286c-0.154,0.476-2.511,6.218-2.511,6.218l-3.081,1.373
			c-0.427,3.567,2.438,4.279,2.438,4.279s3.206-3.135,3.555-3.296c0.352-0.161,1.063-0.948,0.941-1.229
			c-0.121-0.281,0.285-2.127,1.16-3.927c0.876-1.798,3.09-3.309,3.464-4.402s0.612-2.072-0.179-2.819
			c-0.791-0.748-1.924-0.511-4.578-1.271c-2.652-0.76-3.786-3.352-3.786-3.352c4.132-4.615,6.524-12.438,6.524-12.438
			C482.275,38.207,489.319,38.027,489.319,38.027z"/>
		<path fill="#FFFFFF" stroke="#FFFFFF" stroke-miterlimit="10" d="M262.352,48.077c0,0,11.232,6.781,28.356,5.526
			c0,0-14.212,2.155-28.313-4.667L262.352,48.077z"/>
		<path fill="#FFFFFF" stroke="#FFFFFF" stroke-miterlimit="10" d="M340.339,53.664c0,0,15.026,1.916,22.504-2.62
			C362.843,51.044,356.076,56.83,340.339,53.664z"/>
		<path fill="#FFFFFF" stroke="#FFFFFF" stroke-miterlimit="10" d="M410.427,50.089c0,0,15.027,1.917,22.505-2.62
			C432.932,47.469,426.164,53.255,410.427,50.089z"/>
	</g>
	<circle fill="#FFFFFF" stroke="#FFFFFF" stroke-miterlimit="10" cx="230.193" cy="61.388" r="8.827"/>
	<circle fill="#FFFFFF" stroke="#FFFFFF" stroke-miterlimit="10" cx="222.434" cy="54.985" r="8.827"/>
</g>
</svg>
